<svg version="1.1" viewBox="0.0 0.0 1215.727034120735 718.8136482939633" fill="none" stroke="none" stroke-linecap="square" stroke-miterlimit="10" xmlns:xlink="http://www.w3.org/1999/xlink" xmlns="http://www.w3.org/2000/svg"><clipPath id="p.0"><path d="m0 0l1215.727 0l0 718.81366l-1215.727 0l0 -718.81366z" clip-rule="nonzero"/></clipPath><g clip-path="url(#p.0)"><path fill="#000000" fill-opacity="0.0" d="m0 0l1215.727 0l0 718.81366l-1215.727 0z" fill-rule="evenodd"/><path fill="#000000" fill-opacity="0.0" d="m27.236221 196.58005l916.56696 0l0 194.20474l-916.56696 0z" fill-rule="evenodd"/><g filter="url(#shadowFilter-p.1)"><use xlink:href="#p.1" transform="matrix(1.0 0.0 0.0 1.0 0.0 2.0)"/></g><defs><filter id="shadowFilter-p.1" filterUnits="userSpaceOnUse"><feGaussianBlur in="SourceAlpha" stdDeviation="2.0" result="blur"/><feComponentTransfer in="blur" color-interpolation-filters="sRGB"><feFuncR type="linear" slope="0" intercept="0.0"/><feFuncG type="linear" slope="0" intercept="0.0"/><feFuncB type="linear" slope="0" intercept="0.0"/><feFuncA type="linear" slope="0.5" intercept="0"/></feComponentTransfer></filter></defs><g id="p.1"><path fill="#76a5af" d="m353.09186 369.18372l509.54333 0l0 46.4252l-509.54333 0z" fill-rule="evenodd"/></g><g filter="url(#shadowFilter-p.2)"><use xlink:href="#p.2" transform="matrix(1.0 0.0 0.0 1.0 0.0 2.0)"/></g><defs><filter id="shadowFilter-p.2" filterUnits="userSpaceOnUse"><feGaussianBlur in="SourceAlpha" stdDeviation="2.0" result="blur"/><feComponentTransfer in="blur" color-interpolation-filters="sRGB"><feFuncR type="linear" slope="0" intercept="0.0"/><feFuncG type="linear" slope="0" intercept="0.0"/><feFuncB type="linear" slope="0" intercept="0.0"/><feFuncA type="linear" slope="0.5" intercept="0"/></feComponentTransfer></filter></defs><g id="p.2"><path fill="#ffd966" d="m74.485565 284.0656l0 0c0 -34.606934 28.054474 -62.661407 62.661423 -62.661407l0 0c16.618835 0 32.557007 6.6018066 44.308304 18.353104c11.751297 11.751297 18.353104 27.689468 18.353104 44.308304l0 0c0 34.606964 -28.054474 62.661407 -62.661407 62.661407l0 0c-34.60695 0 -62.661423 -28.054443 -62.661423 -62.661407z" fill-rule="evenodd"/></g><path fill="#000000" d="m40.194225 295.93466l0 0c0 -7.9437866 6.4397087 -14.383484 14.3834915 -14.383484l57.53223 0l0 0c3.814743 0 7.473236 1.5154114 10.170662 4.2128296c2.6974335 2.6974182 4.2128296 6.3559265 4.2128296 10.170654l0 70.54013c0 7.943756 -6.439705 14.383484 -14.3834915 14.383484l-57.53223 0c-7.943783 0 -14.3834915 -6.439728 -14.3834915 -14.383484z" fill-rule="evenodd"/><path stroke="#000000" stroke-width="1.0" stroke-linejoin="round" stroke-linecap="butt" d="m40.194225 295.93466l0 0c0 -7.9437866 6.4397087 -14.383484 14.3834915 -14.383484l57.53223 0l0 0c3.814743 0 7.473236 1.5154114 10.170662 4.2128296c2.6974335 2.6974182 4.2128296 6.3559265 4.2128296 10.170654l0 70.54013c0 7.943756 -6.439705 14.383484 -14.3834915 14.383484l-57.53223 0c-7.943783 0 -14.3834915 -6.439728 -14.3834915 -14.383484z" fill-rule="evenodd"/><path fill="#000000" fill-opacity="0.0" d="m-6.9081364 201.31496l1229.5432 0l0 259.77954l-1229.5432 0z" fill-rule="evenodd"/><path fill="#000000" d="m35.666508 268.90872l53.593754 0q33.609375 0 49.796867 16.703125q16.203125 16.703125 16.203125 50.109375q0 33.1875 -16.203125 49.890625q-16.187492 16.703125 -49.796867 16.703125l-53.593754 0l0 -133.40625zm49.79688 108.40625q18.203125 0 27.390625 -10.203125q9.203125 -10.203125 9.203125 -31.390625q0 -21.609375 -9.203125 -31.703125q-9.1875 -10.109375 -27.390625 -10.109375l-17.40625 0l0 83.40625l17.40625 0zm92.403145 -108.40625l91.39061 0l0 25.0l-58.999985 0l0 29.0l51.20311 0l0 25.203125l-51.20311 0l0 29.203125l58.999985 0l0 25.0l-91.39061 0l0 -133.40625zm243.60002 0l-52.203125 133.40625l-34.59375 0l-49.8125 -133.40625l37.40625 0l32.40625 97.40625l32.390625 -97.203125l34.40625 -0.203125zm16.800049 0l91.390625 0l0 25.0l-59.0 0l0 29.0l51.203125 0l0 25.203125l-51.203125 0l0 29.203125l59.0 0l0 25.0l-91.390625 0l0 -133.40625zm118.60004 0l32.390625 0l0 108.0l58.0 0l0 25.40625l-90.390625 0l0 -133.40625zm170.39069 136.20312q-30.59375 0 -47.796875 -17.390625q-17.203125 -17.40625 -17.203125 -52.0q0 -34.0 16.90625 -51.703125q16.90625 -17.703125 48.09375 -17.703125q30.609375 0 47.90625 17.296875q17.296875 17.296875 17.296875 51.90625q0 34.0 -16.90625 51.796875q-16.890625 17.796875 -48.296875 17.796875zm0 -26.59375q15.8125 0 23.8125 -10.0q8.0 -10.0 8.0 -33.0q0 -23.0 -7.90625 -32.890625q-7.90625 -9.90625 -23.90625 -9.90625q-15.796875 0 -23.703125 10.0q-7.890625 10.0 -7.890625 33.1875q0 22.8125 7.890625 32.71875q7.90625 9.890625 23.703125 9.890625zm120.400024 23.796875l-32.390625 0l0 -133.40625l60.0 0q24.0 0 37.09375 10.8125q13.109375 10.796875 13.109375 32.59375q0 22.203125 -13.3125 34.203125q-13.296875 12.0 -36.890625 12.0l-27.609375 0l0 43.796875zm23.609375 -68.796875q9.796875 0 14.5 -5.09375q4.703125 -5.109375 4.703125 -13.90625q0 -20.40625 -19.203125 -20.40625l-23.609375 0l0 39.40625l23.609375 0zm76.80005 -64.609375l91.390625 0l0 25.0l-59.0 0l0 29.0l51.203125 0l0 25.203125l-51.203125 0l0 29.203125l59.0 0l0 25.0l-91.390625 0l0 -133.40625zm197.39697 133.40625l-26.40625 -46.0l-20.0 0l0 46.0l-32.390625 0l0 -133.40625l65.0 0q23.0 0 35.59375 10.609375q12.609375 10.59375 12.609375 31.59375q0 13.0 -7.203125 24.109375q-7.203125 11.09375 -20.0 14.890625l34.0 52.203125l-41.203125 0zm-19.203125 -69.796875q18.609375 0 18.609375 -19.796875q0 -9.203125 -4.40625 -14.0q-4.40625 -4.8125 -12.796875 -4.8125l-28.609375 0l0 38.609375l27.203125 0z" fill-rule="nonzero"/><path fill="#000000" fill-opacity="0.0" d="m37.829395 310.6509l108.755905 0l0 46.4252l-108.755905 0z" fill-rule="evenodd"/><path fill="#fffbf6" d="m51.704395 345.51654q-2.0 0 -3.78125 -0.953125l0 -2.828125q1.703125 1.25 3.203125 1.25q1.546875 0 2.265625 -0.75q0.734375 -0.765625 0.734375 -2.5l0 -12.265625l2.96875 0l0 12.453125q0 3.0625 -1.5625 4.328125q-1.5625 1.265625 -3.828125 1.265625zm19.884083 -5.09375l-7.265625 0l-1.7343788 4.828125l-2.9375 0l6.937504 -17.78125l3.109375 0l6.75 17.78125l-3.09375 0l-1.765625 -4.828125zm-0.875 -2.390625l-2.765625 -7.625l-2.75 7.625l5.515625 0zm16.230942 -0.71875l0 7.9375l-2.921875 0l0 -7.96875l-6.703125 -9.8125l3.609375 0l4.734375 7.390625l4.5625 -7.390625l3.171875 0l-6.453125 9.84375zm9.069122 -9.84375l6.234375 0q8.53125 0 8.53125 8.875q0 8.90625 -8.53125 8.90625l-6.234375 0l0 -17.78125zm5.9375 15.296875q2.984375 0 4.390625 -1.546875q1.421875 -1.546875 1.421875 -4.875q0 -3.328125 -1.421875 -4.875q-1.40625 -1.546875 -4.390625 -1.546875l-3.015625 0l0 12.84375l3.015625 0zm27.41111 -15.296875l0 17.78125l-2.6406174 0l-9.625 -13.21875l0 13.21875l-2.796875 0l0 -17.78125l2.828125 0l9.4375 13.0625l0 -13.0625l2.7968674 0z" fill-rule="nonzero"/><g filter="url(#shadowFilter-p.3)"><use xlink:href="#p.3" transform="matrix(1.0 0.0 0.0 1.0 0.0 2.0)"/></g><defs><filter id="shadowFilter-p.3" filterUnits="userSpaceOnUse"><feGaussianBlur in="SourceAlpha" stdDeviation="2.0" result="blur"/><feComponentTransfer in="blur" color-interpolation-filters="sRGB"><feFuncR type="linear" slope="0" intercept="0.0"/><feFuncG type="linear" slope="0" intercept="0.0"/><feFuncB type="linear" slope="0" intercept="0.0"/><feFuncA type="linear" slope="0.5" intercept="0"/></feComponentTransfer></filter></defs><g id="p.3"><path fill="#e06666" d="m979.62085 195.89735l67.31995 -17.996887l-17.996948 67.3199z" fill-rule="evenodd"/></g></g></svg>